<svg xmlns="http://www.w3.org/2000/svg" width="91.001" height="78" viewBox="0 0 91.001 78">
  <g id="broken-link" transform="translate(0 -36.547)">
    <g id="Group_61" data-name="Group 61" transform="translate(0 36.547)">
      <path id="Path_111" data-name="Path 111" d="M69.876,112.09h-3.25A1.566,1.566,0,0,0,65,113.715v16.25a8.146,8.146,0,0,1-8.125,8.124H14.625A7.825,7.825,0,0,1,8.886,135.7,7.824,7.824,0,0,1,6.5,129.965V87.714a7.822,7.822,0,0,1,2.386-5.738,7.824,7.824,0,0,1,5.739-2.387h35.75A1.564,1.564,0,0,0,52,77.965v-3.25a1.563,1.563,0,0,0-1.625-1.624H14.625A14.089,14.089,0,0,0,4.29,77.381,14.087,14.087,0,0,0,0,87.715v42.251A14.085,14.085,0,0,0,4.291,140.3a14.089,14.089,0,0,0,10.334,4.292H56.876A14.653,14.653,0,0,0,71.5,129.965V113.716a1.567,1.567,0,0,0-1.626-1.626Z" transform="translate(0 -66.59)" fill="#ee534f"/>
      <path id="Path_112" data-name="Path 112" d="M250.819,37.512a3.125,3.125,0,0,0-2.286-.965h-26a3.232,3.232,0,0,0-2.285,5.535l8.937,8.937L196.076,84.13a1.6,1.6,0,0,0,0,2.336l5.789,5.788a1.6,1.6,0,0,0,2.336,0l33.109-33.109,8.938,8.937a3.25,3.25,0,0,0,5.536-2.285v-26A3.125,3.125,0,0,0,250.819,37.512Z" transform="translate(-160.783 -36.547)" fill="#ee534f"/>
    </g>
  </g>
</svg>
