<svg xmlns="http://www.w3.org/2000/svg" width="766" height="906" viewBox="0 0 766 906">
  <g id="Group_72" data-name="Group 72" transform="translate(-1340 1032)">
    <rect id="Rectangle_45" data-name="Rectangle 45" width="766" height="906" transform="translate(1340 -1032)" fill="#fff"/>
    <rect id="Rectangle_44" data-name="Rectangle 44" width="671" height="89" rx="33" transform="translate(1389 -982)" fill="#f4f4f4"/>
    <rect id="Rectangle_55" data-name="Rectangle 55" width="671" height="89" rx="33" transform="translate(1389 -442)" fill="#f4f4f4"/>
    <rect id="Rectangle_50" data-name="Rectangle 50" width="671" height="275" rx="33" transform="translate(1389 -750)" fill="#f4f4f4"/>
    <rect id="Rectangle_46" data-name="Rectangle 46" width="662" height="30" rx="15" transform="translate(1402 -879)" fill="#f4f4f4"/>
    <rect id="Rectangle_54" data-name="Rectangle 54" width="662" height="30" rx="15" transform="translate(1402 -341)" fill="#f4f4f4"/>
    <rect id="Rectangle_49" data-name="Rectangle 49" width="662" height="30" rx="15" transform="translate(1398 -796)" fill="#f4f4f4"/>
    <rect id="Rectangle_51" data-name="Rectangle 51" width="662" height="30" rx="15" transform="translate(1402 -254)" fill="#f4f4f4"/>
    <rect id="Rectangle_47" data-name="Rectangle 47" width="398" height="30" rx="15" transform="translate(1404 -839)" fill="#f4f4f4"/>
    <rect id="Rectangle_53" data-name="Rectangle 53" width="398" height="31" rx="15.5" transform="translate(1404 -301)" fill="#f4f4f4"/>
    <rect id="Rectangle_48" data-name="Rectangle 48" width="235" height="30" rx="15" transform="translate(1824 -842)" fill="#f4f4f4"/>
    <rect id="Rectangle_52" data-name="Rectangle 52" width="235" height="30" rx="15" transform="translate(1824 -302)" fill="#f4f4f4"/>
  </g>
</svg>
