<svg xmlns="http://www.w3.org/2000/svg" width="96" height="110.044" viewBox="0 0 96 110.044">
  <g id="global" transform="translate(-31.6)">
    <g id="Group_56" data-name="Group 56" transform="translate(40.471 15.904)">
      <g id="Group_55" data-name="Group 55" transform="translate(0)">
        <path id="Path_108" data-name="Path 108" d="M135.511,80.5a39.129,39.129,0,0,0-31.357-8.387c-1.275.213-2.532.5-3.771.834-.356.1-.711.2-1.067.306a39.118,39.118,0,0,0,19.938,75.6c.917-.206,1.82-.457,2.718-.727A39.092,39.092,0,0,0,135.511,80.5Zm-50.967,6.04c.795-.857,1.63-1.666,2.489-2.434.066-.059.13-.123.2-.178.834-.731,1.7-1.412,2.6-2.057.116-.084.228-.178.345-.252q1.312-.923,2.7-1.719c.144-.084.288-.178.434-.251q1.38-.772,2.823-1.413l.478-.21c.61-.261,1.244-.476,1.863-.711a35.259,35.259,0,0,0-7.38,12.311,38.334,38.334,0,0,1-6.569-3.07Zm-2.276,2.772a41.549,41.549,0,0,0,7.714,3.678,62.335,62.335,0,0,0-2.393,15.924H75.171A35.627,35.627,0,0,1,82.268,89.307Zm0,42.759a35.63,35.63,0,0,1-7.1-19.6H87.589a62.315,62.315,0,0,0,2.393,15.924A41.675,41.675,0,0,0,82.268,132.066Zm14.338,11.28c-.151-.06-.306-.126-.459-.2Q94.7,142.5,93.3,141.726c-.139-.076-.274-.158-.412-.236-.932-.533-1.844-1.113-2.727-1.737-.1-.075-.208-.153-.313-.229-.9-.651-1.778-1.34-2.626-2.078-.057-.052-.112-.107-.178-.156-.876-.779-1.723-1.6-2.526-2.464a38.484,38.484,0,0,1,6.572-3.074,35.259,35.259,0,0,0,7.381,12.306C97.849,143.829,97.217,143.614,96.606,143.346Zm12.265,2.732C102.9,145.1,97.7,139.23,94.494,130.69a58.755,58.755,0,0,1,14.377-2.112Zm0-21.052a62.381,62.381,0,0,0-15.5,2.286,59,59,0,0,1-2.233-14.848h17.728Zm0-16.117H91.143a58.962,58.962,0,0,1,2.231-14.844,62.151,62.151,0,0,0,15.5,2.334Zm0-16.11A58.8,58.8,0,0,1,94.5,90.683c3.2-8.532,8.41-14.4,14.376-15.385Zm30.158-3.492a35.63,35.63,0,0,1,7.1,19.6H133.708a62.316,62.316,0,0,0-2.393-15.924A41.678,41.678,0,0,0,139.029,89.307ZM124.686,78.025l.469.2c.964.43,1.909.9,2.83,1.422.142.08.283.164.425.245q1.392.8,2.713,1.726c.112.078.22.164.331.244.889.647,1.778,1.332,2.612,2.066.062.055.121.114.178.169.873.775,1.716,1.589,2.517,2.455a38.465,38.465,0,0,1-6.556,3.068,35.256,35.256,0,0,0-7.383-12.308C123.447,77.542,124.076,77.757,124.686,78.025Zm-12.26-2.731c5.966.983,11.168,6.848,14.377,15.388a58.755,58.755,0,0,1-14.377,2.112v-17.5Zm0,21.1a62.182,62.182,0,0,0,15.5-2.334,58.963,58.963,0,0,1,2.231,14.844H112.426Zm0,16.066h17.728a59.016,59.016,0,0,1-2.233,14.85,62.264,62.264,0,0,0-15.5-2.286Zm0,33.616v-17.5A58.8,58.8,0,0,1,126.8,130.69v0C123.594,139.225,118.392,145.092,112.426,146.08Zm24.32-11.243c-.8.86-1.636,1.671-2.5,2.441-.062.057-.121.116-.178.178-.839.734-1.714,1.422-2.612,2.068-.11.08-.217.162-.329.24-.878.62-1.787,1.195-2.715,1.73-.14.08-.281.164-.421.242q-1.383.773-2.834,1.422l-.469.206c-.61.261-1.244.476-1.865.711a35.26,35.26,0,0,0,7.385-12.324,38.345,38.345,0,0,1,6.578,3.07Zm2.283-2.772h-.007a41.55,41.55,0,0,0-7.714-3.678,62.33,62.33,0,0,0,2.4-15.924h12.418A35.627,35.627,0,0,1,139.029,132.066Z" transform="translate(-71.52 -71.568)" fill="#2da9f5"/>
      </g>
    </g>
    <g id="Group_58" data-name="Group 58" transform="translate(48.642 55.022)">
      <g id="Group_57" data-name="Group 57">
        <path id="Path_109" data-name="Path 109" d="M183.691,247.6a44.494,44.494,0,0,1-44.444,44.444H115.093l4.507-4.508-2.514-2.514-8.8,8.8,8.8,8.8,2.514-2.514-4.507-4.508h24.153a48.053,48.053,0,0,0,48-48Z" transform="translate(-108.288 -247.6)" fill="#2da9f5"/>
      </g>
    </g>
    <g id="Group_60" data-name="Group 60" transform="translate(31.6)">
      <g id="Group_59" data-name="Group 59">
        <path id="Path_110" data-name="Path 110" d="M98.2,0,95.691,2.514,100.2,7.022H79.6a48.053,48.053,0,0,0-48,48h3.556A44.494,44.494,0,0,1,79.6,10.578h20.6l-4.507,4.508L98.2,17.6,107,8.8Z" transform="translate(-31.6)" fill="#2da9f5"/>
      </g>
    </g>
  </g>
</svg>
