<svg xmlns="http://www.w3.org/2000/svg" width="63.399" height="63.188" viewBox="0 0 63.399 63.188">
  <g id="logout" transform="translate(0 -0.85)">
    <g id="Group_47" data-name="Group 47" transform="translate(0 0.85)">
      <g id="Group_46" data-name="Group 46" transform="translate(0 0)">
        <path id="Path_102" data-name="Path 102" d="M31.594,58.773H7.9A2.634,2.634,0,0,1,5.266,56.14V8.749A2.634,2.634,0,0,1,7.9,6.116h23.7a2.633,2.633,0,0,0,0-5.266H7.9A7.908,7.908,0,0,0,0,8.749V56.14a7.908,7.908,0,0,0,7.9,7.9h23.7a2.633,2.633,0,1,0,0-5.266Z" transform="translate(0 -0.85)" fill="#9885db"/>
      </g>
    </g>
    <g id="Group_49" data-name="Group 49" transform="translate(21.063 14.015)">
      <g id="Group_48" data-name="Group 48">
        <path id="Path_103" data-name="Path 103" d="M211.652,123.72l-16.008-15.8a2.633,2.633,0,0,0-3.7,3.749l11.44,11.29H172.733a2.633,2.633,0,0,0,0,5.266h30.654l-11.44,11.29a2.632,2.632,0,1,0,3.7,3.749l16.008-15.8a2.631,2.631,0,0,0,0-3.749Z" transform="translate(-170.1 -107.165)" fill="#9885db"/>
      </g>
    </g>
  </g>
</svg>
