<svg xmlns="http://www.w3.org/2000/svg" width="86" height="86" viewBox="0 0 86 86">
  <g id="money" transform="translate(0 0)">
    <path id="Path_105" data-name="Path 105" d="M43,86A43,43,0,0,1,12.594,12.594,43,43,0,0,1,73.406,73.406,42.718,42.718,0,0,1,43,86ZM43,5.375A37.625,37.625,0,1,0,80.625,43,37.668,37.668,0,0,0,43,5.375Z" transform="translate(0)" fill="#925ec6"/>
    <path id="Path_106" data-name="Path 106" d="M196.094,120.188a6.719,6.719,0,1,1,6.719-6.719,2.688,2.688,0,0,0,5.375,0,12.112,12.112,0,0,0-9.406-11.789V98.688a2.688,2.688,0,0,0-5.375,0v2.992a12.092,12.092,0,0,0,2.688,23.883,6.719,6.719,0,1,1-6.719,6.719,2.688,2.688,0,0,0-5.375,0,12.112,12.112,0,0,0,9.406,11.789v2.992a2.688,2.688,0,0,0,5.375,0V144.07a12.092,12.092,0,0,0-2.687-23.883Z" transform="translate(-153.094 -79.875)" fill="#925ec6"/>
  </g>
</svg>
